<svg width="20" height="15" viewBox="0 0 20 15" fill="none" xmlns="http://www.w3.org/2000/svg">
	<path fill-rule="evenodd" clip-rule="evenodd"
		  d="M17.3874 1.95941H9.99995L8.15308 0.112549H2.61249C1.58748 0.112549 0.774859 0.934404 0.774859 1.95941L0.765625 13.0406C0.765625 14.0656 1.58748 14.8875 2.61249 14.8875H17.3874C18.4124 14.8875 19.2343 14.0656 19.2343 13.0406V3.80628C19.2343 2.78127 18.4124 1.95941 17.3874 1.95941ZM17.62 13.2151H2.38002V1.78507H7.30444L9.20943 3.69007H17.62V13.2151ZM9.9897 11.7891L9.39938 11.3166L9.39422 11.3124C7.30045 9.64291 5.91852 8.54099 5.91852 7.18888C5.91852 6.08626 6.90374 5.21991 8.15767 5.21991C8.86606 5.21991 9.54594 5.76229 9.9897 6.22052C10.4335 5.76229 11.1133 5.21991 11.8217 5.21991C13.0757 5.21991 14.0609 6.08626 14.0609 7.18888C14.0609 8.53864 12.6838 9.63908 10.5961 11.3073L10.58 11.3201L9.9897 11.7891Z"
		  fill="url(#paint0_linear_1805_2904)"/>
	<defs>
		<linearGradient id="paint0_linear_1805_2904" x1="0.765625" y1="9.14165" x2="19.2343" y2="9.14165"
						gradientUnits="userSpaceOnUse">
			<stop stop-color="#97C93D"/>
			<stop offset="1" stop-color="#4FBA69"/>
		</linearGradient>
	</defs>
</svg>
