<svg width="167" height="40" viewBox="0 0 167 40" fill="none" xmlns="http://www.w3.org/2000/svg">
<path fill-rule="evenodd" clip-rule="evenodd" d="M11.3475 8.99536H18.7823C19.3576 8.99536 19.6452 9.25615 19.6452 9.77772C19.6784 9.98857 19.695 10.2826 19.695 10.6599V11.9084C19.695 12.4633 19.4074 12.7407 18.8321 12.7407H15.4632C14.3015 12.7407 13.7207 12.8406 13.7207 13.0403C13.61 13.0403 13.5547 13.5286 13.5547 14.5051V28.2713C13.5547 28.9926 13.4219 29.3533 13.1564 29.3533C13.1564 29.4087 12.9849 29.4365 12.642 29.4365H10.0531C9.41138 29.4365 9.09053 29.1757 9.09053 28.6541V14.3387C9.09053 14.1056 9.07947 13.8338 9.05734 13.523L9.09053 13.4232C8.99096 12.9904 8.7199 12.774 8.27735 12.774C7.95651 12.7518 7.53609 12.7407 7.0161 12.7407H5.29017C4.89188 12.7407 4.37189 12.7518 3.7302 12.774C3.2434 12.7185 3 12.4743 3 12.0416V9.91088C3 9.30054 3.23234 8.99536 3.69701 8.99536H11.3475ZM11.7302 11.2651C11.3319 11.2651 11.0885 11.0487 11 10.6159C11 10.3496 11.1383 10.1443 11.4149 10C11.4813 10.2108 11.5477 10.3163 11.614 10.3163H11.7302C11.8408 10.3163 11.8962 10.2108 11.8962 10H11.9791C12.2225 10.1554 12.3442 10.3607 12.3442 10.6159C12.2557 11.0487 12.051 11.2651 11.7302 11.2651Z" fill="url(#paint0_linear_1887_13601)"/>
<path fill-rule="evenodd" clip-rule="evenodd" d="M28.8225 8.69587C29.6744 8.61818 30.2995 8.57935 30.6978 8.57935C33.6517 8.57935 35.5492 10.022 36.39 12.9073L36.5228 13.8061C36.5228 15.4707 36.2074 16.6859 35.5768 17.4516L34.3322 18.75L34.299 18.9997C34.299 19.0329 34.7249 19.3603 35.5768 19.9818C36.2406 20.6476 36.7274 21.7518 37.0372 23.2943C37.2917 25.4139 37.5627 26.7566 37.8504 27.3226C37.9057 27.5556 37.9334 27.6999 37.9334 27.7554V27.8053C37.9334 28.1715 37.4466 28.3546 36.473 28.3546C35.5326 28.4434 34.8356 28.4878 34.3819 28.4878C33.9062 28.4878 33.5909 28.0273 33.436 27.1062C33.1152 25.3639 32.8164 23.9657 32.5399 22.9114C31.9645 21.8239 31.4777 21.2801 31.0795 21.2801C30.648 21.1026 30.1778 21.0138 29.6688 21.0138C26.5378 21.1803 24.9723 21.3689 24.9723 21.5798C24.8506 21.7795 24.7898 21.9626 24.7898 22.1291C25.1328 25.6691 25.3042 27.9052 25.3042 28.8374C25.3042 29.2369 24.6957 29.4366 23.4787 29.4366C23.4787 29.4588 22.8758 29.5143 21.6698 29.6031C21.1609 29.6031 20.9064 29.2147 20.9064 28.4379C20.2382 20.5963 19.787 15.2661 19.5527 12.4472C19.4263 10.9257 19.3631 10.1358 19.3631 10.0775C19.3631 9.89342 19.4542 9.74406 19.6366 9.62939C19.938 9.43983 20.4885 9.34505 21.2881 9.34505C21.4762 9.31176 24.3085 9.06207 28.8225 8.69587ZM24.0762 13.157C24.2974 16.3419 24.4689 17.9343 24.5906 17.9343C24.7455 18.1008 25.0719 18.184 25.5698 18.184C29.1876 17.9177 30.9965 17.6347 30.9965 17.3351C31.7709 16.98 32.1582 16.2031 32.1582 15.0046C32.1582 13.5953 31.5607 12.6687 30.3659 12.2248C30.0229 12.1693 29.7629 12.1416 29.5859 12.1416C25.9902 12.3191 24.1923 12.5189 24.1923 12.7408C24.1149 12.8851 24.0762 13.0238 24.0762 13.157ZM27.7302 11.2651C27.3319 11.2651 27.0885 11.0487 27 10.6159C27 10.3496 27.1383 10.1443 27.4149 10C27.4813 10.2108 27.5477 10.3163 27.614 10.3163H27.7302C27.8408 10.3163 27.8962 10.2108 27.8962 10H27.9791C28.2225 10.1554 28.3442 10.3607 28.3442 10.6159C28.2557 11.0487 28.051 11.2651 27.7302 11.2651Z" fill="url(#paint1_linear_1887_13601)"/>
<path fill-rule="evenodd" clip-rule="evenodd" d="M48.3886 8.31299H47.6086C47.5201 8.31299 46.7291 8.34073 46.2312 8.39622C44.8593 8.66255 43.9632 8.92889 43.5428 9.19522C42.4917 9.59472 41.3466 10.4603 40.1075 11.792C39.3994 12.7907 38.885 13.6785 38.5641 14.4553C38.0109 16.2198 37.7344 17.557 37.7344 18.467C37.7565 18.6223 37.7675 18.7111 37.7675 18.7333C37.7122 18.8998 37.6846 19.0662 37.6846 19.2327C37.6846 19.4546 37.7122 19.671 37.7675 19.8819C37.7454 20.0372 37.7344 20.126 37.7344 20.1482C37.7565 20.5255 37.7675 20.7363 37.7675 20.7807C38.1326 23.0335 38.7688 24.7868 39.676 26.0408C41.7117 28.7486 44.4998 30.1024 48.0401 30.1024C49.9984 30.1024 51.8792 29.5587 53.6826 28.4711C56.6808 26.3516 58.18 23.1944 58.18 18.9996C58.18 18.8221 58.1634 18.7333 58.1302 18.7333C58.1302 17.4238 57.8259 15.9534 57.2174 14.3221C56.8744 13.3567 56.183 12.2969 55.143 11.1428C53.1515 9.25625 50.9001 8.31299 48.3886 8.31299ZM42.2317 19.1827C42.2538 20.5699 42.5138 21.8793 43.0117 23.1111C43.3989 23.9323 43.9023 24.6148 44.5219 25.1586C45.595 25.891 46.635 26.2572 47.6418 26.2572H48.3886C49.2516 26.2572 50.2362 25.891 51.3426 25.1586C52.1613 24.3707 52.7532 23.4829 53.1183 22.4952C53.3506 21.8072 53.5221 20.7474 53.6328 19.3159C53.5664 18.2505 53.406 17.1741 53.1515 16.0866C52.8306 15.221 52.4379 14.483 51.9732 13.8727C50.9443 12.6964 49.5779 12.1082 47.8741 12.1082C45.9823 12.1082 44.4942 12.9183 43.41 14.5385C42.8789 15.4596 42.5304 16.5083 42.3645 17.6846C42.3313 18.2616 42.287 18.761 42.2317 19.1827ZM47.7302 10.2651C47.3319 10.2651 47.0885 10.0487 47 9.6159C47 9.34956 47.1383 9.14426 47.4149 9C47.4813 9.21085 47.5477 9.31627 47.614 9.31627H47.7302C47.8408 9.31627 47.8962 9.21085 47.8962 9H47.9791C48.2225 9.15536 48.3442 9.36066 48.3442 9.6159C48.2557 10.0487 48.051 10.2651 47.7302 10.2651Z" fill="url(#paint2_linear_1887_13601)"/>
<path fill-rule="evenodd" clip-rule="evenodd" d="M83.3053 10.1274C84.644 10.1274 85.3134 10.3383 85.3134 10.76C85.3466 10.76 85.3632 10.8044 85.3632 10.8931C85.2415 14.0336 85.1198 16.2309 84.9981 17.4849C84.9981 18.0841 85.2968 18.3838 85.8942 18.3838C89.7112 18.6168 92.0456 18.7333 92.8975 18.7333C93.3843 18.7333 93.6277 18.2284 93.6277 17.2186C93.7715 13.1237 93.9043 11.0762 94.026 11.0762C94.1698 10.8654 94.4243 10.76 94.7894 10.76H95.669L96.4821 10.8432H96.9634C97.9812 10.8432 98.4902 11.054 98.4902 11.4757C97.8374 24.9478 97.4668 31.6838 97.3783 31.6838C97.1459 31.8836 96.9081 31.989 96.6647 32.0001C94.2196 31.9557 92.9971 31.7781 92.9971 31.4674C92.9307 31.3342 92.8975 31.14 92.8975 30.8848V30.8349L93.2626 23.261C93.2626 22.8393 92.8035 22.6285 91.8852 22.6285C88.1899 22.4287 86.0436 22.3288 85.4462 22.3288C84.9372 22.3288 84.6828 22.806 84.6828 23.7604C84.5057 28.5655 84.3453 30.968 84.2015 30.968C84.2015 31.1789 83.947 31.2843 83.4381 31.2843H83.3883C81.0981 31.2288 79.9531 31.1068 79.9531 30.9181C79.8314 30.7627 79.7705 30.6018 79.7705 30.4354V30.2523C80.379 17.0133 80.7386 10.3938 80.8492 10.3938C81.0484 10.1607 81.242 10.0442 81.4301 10.0442C81.9722 10.0775 82.9292 10.1274 83.3053 10.1274ZM82.7302 12.2651C82.3319 12.2651 82.0885 12.0487 82 11.6159C82 11.3496 82.1383 11.1443 82.4149 11C82.4813 11.2108 82.5477 11.3163 82.614 11.3163H82.7302C82.8408 11.3163 82.8962 11.2108 82.8962 11H82.9791C83.2225 11.1554 83.3442 11.3607 83.3442 11.6159C83.2557 12.0487 83.051 12.2651 82.7302 12.2651Z" fill="url(#paint3_linear_1887_13601)"/>
<path fill-rule="evenodd" clip-rule="evenodd" d="M109.389 8.31299H108.609C108.52 8.31299 107.729 8.34073 107.231 8.39622C105.859 8.66255 104.963 8.92889 104.543 9.19522C103.492 9.59472 102.347 10.4603 101.108 11.792C100.399 12.7907 99.885 13.6785 99.5641 14.4553C99.0109 16.2198 98.7344 17.557 98.7344 18.467C98.7565 18.6223 98.7675 18.7111 98.7675 18.7333C98.7122 18.8998 98.6846 19.0662 98.6846 19.2327C98.6846 19.4546 98.7122 19.671 98.7675 19.8819C98.7454 20.0372 98.7344 20.126 98.7344 20.1482C98.7565 20.5255 98.7675 20.7363 98.7675 20.7807C99.1326 23.0335 99.7688 24.7868 100.676 26.0408C102.712 28.7486 105.5 30.1024 109.04 30.1024C110.998 30.1024 112.879 29.5587 114.683 28.4711C117.681 26.3516 119.18 23.1944 119.18 18.9996C119.18 18.8221 119.163 18.7333 119.13 18.7333C119.13 17.4238 118.826 15.9534 118.217 14.3221C117.874 13.3567 117.183 12.2969 116.143 11.1428C114.152 9.25625 111.9 8.31299 109.389 8.31299ZM103.232 19.1827C103.254 20.5699 103.514 21.8793 104.012 23.1111C104.399 23.9323 104.902 24.6148 105.522 25.1586C106.595 25.891 107.635 26.2572 108.642 26.2572H109.389C110.252 26.2572 111.236 25.891 112.343 25.1586C113.161 24.3707 113.753 23.4829 114.118 22.4952C114.351 21.8072 114.522 20.7474 114.633 19.3159C114.566 18.2505 114.406 17.1741 114.151 16.0866C113.831 15.221 113.438 14.483 112.973 13.8727C111.944 12.6964 110.578 12.1082 108.874 12.1082C106.982 12.1082 105.494 12.9183 104.41 14.5385C103.879 15.4596 103.53 16.5083 103.364 17.6846C103.331 18.2616 103.287 18.761 103.232 19.1827ZM108.73 10.2651C108.332 10.2651 108.089 10.0487 108 9.6159C108 9.34956 108.138 9.14426 108.415 9C108.481 9.21085 108.548 9.31627 108.614 9.31627H108.73C108.841 9.31627 108.896 9.21085 108.896 9H108.979C109.223 9.15536 109.344 9.36066 109.344 9.6159C109.256 10.0487 109.051 10.2651 108.73 10.2651Z" fill="url(#paint4_linear_1887_13601)"/>
<path fill-rule="evenodd" clip-rule="evenodd" d="M154.886 8.31299H154.106C154.017 8.31299 153.226 8.34073 152.729 8.39622C151.357 8.66255 150.46 8.92889 150.04 9.19522C148.989 9.59472 147.844 10.4603 146.605 11.792C145.897 12.7907 145.382 13.6785 145.061 14.4553C144.508 16.2198 144.232 17.557 144.232 18.467C144.254 18.6223 144.265 18.7111 144.265 18.7333C144.21 18.8998 144.182 19.0662 144.182 19.2327C144.182 19.4546 144.21 19.671 144.265 19.8819C144.243 20.0372 144.232 20.126 144.232 20.1482C144.254 20.5255 144.265 20.7363 144.265 20.7807C144.63 23.0335 145.266 24.7868 146.173 26.0408C148.209 28.7486 150.997 30.1024 154.537 30.1024C156.496 30.1024 158.377 29.5587 160.18 28.4711C163.178 26.3516 164.677 23.1944 164.677 18.9996C164.677 18.8221 164.661 18.7333 164.627 18.7333C164.627 17.4238 164.323 15.9534 163.715 14.3221C163.372 13.3567 162.68 12.2969 161.64 11.1428C159.649 9.25625 157.397 8.31299 154.886 8.31299ZM148.729 19.1827C148.751 20.5699 149.011 21.8793 149.509 23.1111C149.896 23.9323 150.4 24.6148 151.019 25.1586C152.092 25.891 153.132 26.2572 154.139 26.2572H154.886C155.749 26.2572 156.734 25.891 157.84 25.1586C158.659 24.3707 159.251 23.4829 159.616 22.4952C159.848 21.8072 160.019 20.7474 160.13 19.3159C160.064 18.2505 159.903 17.1741 159.649 16.0866C159.328 15.221 158.935 14.483 158.471 13.8727C157.442 12.6964 156.075 12.1082 154.371 12.1082C152.48 12.1082 150.992 12.9183 149.907 14.5385C149.376 15.4596 149.028 16.5083 148.862 17.6846C148.829 18.2616 148.784 18.761 148.729 19.1827ZM154.73 10.2651C154.332 10.2651 154.089 10.0487 154 9.6159C154 9.34956 154.138 9.14426 154.415 9C154.481 9.21085 154.548 9.31627 154.614 9.31627H154.73C154.841 9.31627 154.896 9.21085 154.896 9H154.979C155.223 9.15536 155.344 9.36066 155.344 9.6159C155.256 10.0487 155.051 10.2651 154.73 10.2651Z" fill="url(#paint5_linear_1887_13601)"/>
<path fill-rule="evenodd" clip-rule="evenodd" d="M124.197 8.49609H125.325C125.79 8.49609 126.022 8.8845 126.022 9.6613V28.0217C126.022 28.4434 125.834 28.7319 125.458 28.8873C125.325 28.8873 125.237 28.9039 125.192 28.9372C124.705 28.9039 124.329 28.8873 124.064 28.8873H122.471C121.873 28.8873 121.574 28.5987 121.574 28.0217V10.2273C121.574 9.99422 121.558 9.72234 121.525 9.41162C121.58 8.80127 121.823 8.49609 122.255 8.49609H124.197ZM123.73 11.2651C123.332 11.2651 123.089 11.0487 123 10.6159C123 10.3496 123.138 10.1443 123.415 10C123.481 10.2108 123.548 10.3163 123.614 10.3163H123.73C123.841 10.3163 123.896 10.2108 123.896 10H123.979C124.223 10.1554 124.344 10.3607 124.344 10.6159C124.256 11.0487 124.051 11.2651 123.73 11.2651Z" fill="url(#paint6_linear_1887_13601)"/>
<path fill-rule="evenodd" clip-rule="evenodd" d="M140.356 8.49609H141.485C141.95 8.49609 142.182 8.8845 142.182 9.6613V28.0217C142.182 28.4434 141.994 28.7319 141.618 28.8873C141.485 28.8873 141.396 28.9039 141.352 28.9372C140.865 28.9039 140.489 28.8873 140.224 28.8873H138.631C138.033 28.8873 137.734 28.5987 137.734 28.0217V10.2273C137.734 9.99422 137.718 9.72234 137.685 9.41162C137.74 8.80127 137.983 8.49609 138.415 8.49609H140.356ZM139.73 11.2651C139.332 11.2651 139.089 11.0487 139 10.6159C139 10.3496 139.138 10.1443 139.415 10C139.481 10.2108 139.548 10.3163 139.614 10.3163H139.73C139.841 10.3163 139.896 10.2108 139.896 10H139.979C140.223 10.1554 140.344 10.3607 140.344 10.6159C140.256 11.0487 140.051 11.2651 139.73 11.2651Z" fill="url(#paint7_linear_1887_13601)"/>
<path fill-rule="evenodd" clip-rule="evenodd" d="M133.017 25.9741H133.963C134.45 25.9741 134.694 26.1905 134.694 26.6233V29.2367C134.694 29.7361 134.572 29.9858 134.328 29.9858C134.328 30.0413 134.057 30.0801 133.515 30.1023H131.64C130.899 30.1023 130.528 29.897 130.528 29.4864C130.506 29.2312 130.495 28.987 130.495 28.754V26.7898C130.495 26.3792 130.655 26.1073 130.976 25.9741H133.017ZM132.852 27.9383C132.453 27.9383 132.21 27.7219 132.121 27.2891C132.121 27.0228 132.26 26.8175 132.536 26.6732C132.603 26.8841 132.669 26.9895 132.735 26.9895H132.852C132.962 26.9895 133.018 26.8841 133.018 26.6732H133.1C133.344 26.8286 133.466 27.0339 133.466 27.2891C133.377 27.7219 133.172 27.9383 132.852 27.9383Z" fill="url(#paint8_linear_1887_13601)"/>
<path fill-rule="evenodd" clip-rule="evenodd" d="M68.5356 9.21189C69.2769 9.1786 69.6641 9.15086 69.6973 9.12866C72.4632 9.12866 74.7976 10.3438 76.7006 12.7741C77.2427 13.7063 77.5137 14.2778 77.5137 14.4886V14.6218C77.5137 15.0768 76.2857 15.4541 73.8295 15.7537H73.7798C73.4368 15.7537 73.0938 15.4374 72.7508 14.8049C71.7551 13.6952 70.4828 13.1403 68.9339 13.1403C67.3518 13.1403 65.9744 13.845 64.8016 15.2543C64.0493 16.2531 63.6731 17.6347 63.6731 19.3992V19.6655C63.6731 19.7321 63.6897 19.7931 63.7229 19.8486L63.6731 19.9485C63.8391 21.4466 64.1378 22.6784 64.5693 23.6439C64.9344 24.5316 65.5373 25.3861 66.3782 26.2073C67.2411 27.0507 68.4803 27.4724 70.0956 27.4724C71.036 27.4724 72.0428 27.1228 73.1159 26.4237C74.2223 25.3473 74.7755 24.1321 74.7755 22.7783C74.7755 21.9682 75.0576 21.5631 75.6218 21.5631C77.4252 21.1414 78.4597 20.9306 78.7252 20.9306C79.0571 21.0305 79.2231 21.319 79.2231 21.7962V22.5619C79.2231 24.9478 78.3269 27.0341 76.5346 28.8207C74.4436 30.563 72.1036 31.4341 69.5147 31.4341C66.2288 31.4341 63.5625 30.1135 61.5157 27.4724C60.6749 26.3294 59.9889 24.8091 59.4579 22.9114C59.2145 21.6796 59.0928 20.7031 59.0928 19.9818V19.4491C59.0928 16.3308 60.2157 13.7618 62.4617 11.7421C63.8225 10.5769 65.3216 9.82224 66.959 9.47823C67.4679 9.36725 68.3254 9.21189 68.5356 9.21189ZM68.7302 11.2651C68.3319 11.2651 68.0885 11.0487 68 10.6159C68 10.3496 68.1383 10.1443 68.4149 10C68.4813 10.2108 68.5477 10.3163 68.614 10.3163H68.7302C68.8408 10.3163 68.8962 10.2108 68.8962 10H68.9791C69.2225 10.1554 69.3442 10.3607 69.3442 10.6159C69.2557 11.0487 69.051 11.2651 68.7302 11.2651Z" fill="url(#paint9_linear_1887_13601)"/>
<defs>
<linearGradient id="paint0_linear_1887_13601" x1="13.4469" y1="8.99536" x2="14.7479" y2="29.3565" gradientUnits="userSpaceOnUse">
<stop stop-color="#97C93D"/>
<stop offset="1" stop-color="#4FBA69"/>
</linearGradient>
<linearGradient id="paint1_linear_1887_13601" x1="30.766" y1="8.57935" x2="31.9667" y2="29.5376" gradientUnits="userSpaceOnUse">
<stop stop-color="#97C93D"/>
<stop offset="1" stop-color="#4FBA69"/>
</linearGradient>
<linearGradient id="paint2_linear_1887_13601" x1="50.5095" y1="8.31299" x2="51.7149" y2="30.0389" gradientUnits="userSpaceOnUse">
<stop stop-color="#97C93D"/>
<stop offset="1" stop-color="#4FBA69"/>
</linearGradient>
<linearGradient id="paint3_linear_1887_13601" x1="91.4843" y1="10.0442" x2="92.8234" y2="31.9215" gradientUnits="userSpaceOnUse">
<stop stop-color="#97C93D"/>
<stop offset="1" stop-color="#4FBA69"/>
</linearGradient>
<linearGradient id="paint4_linear_1887_13601" x1="111.51" y1="8.31299" x2="112.715" y2="30.0389" gradientUnits="userSpaceOnUse">
<stop stop-color="#97C93D"/>
<stop offset="1" stop-color="#4FBA69"/>
</linearGradient>
<linearGradient id="paint5_linear_1887_13601" x1="157.007" y1="8.31299" x2="158.212" y2="30.0389" gradientUnits="userSpaceOnUse">
<stop stop-color="#97C93D"/>
<stop offset="1" stop-color="#4FBA69"/>
</linearGradient>
<linearGradient id="paint6_linear_1887_13601" x1="124.339" y1="8.49609" x2="128.93" y2="27.8514" gradientUnits="userSpaceOnUse">
<stop stop-color="#97C93D"/>
<stop offset="1" stop-color="#4FBA69"/>
</linearGradient>
<linearGradient id="paint7_linear_1887_13601" x1="140.499" y1="8.49609" x2="145.09" y2="27.8514" gradientUnits="userSpaceOnUse">
<stop stop-color="#97C93D"/>
<stop offset="1" stop-color="#4FBA69"/>
</linearGradient>
<linearGradient id="paint8_linear_1887_13601" x1="133.122" y1="25.9741" x2="133.334" y2="30.0921" gradientUnits="userSpaceOnUse">
<stop stop-color="#97C93D"/>
<stop offset="1" stop-color="#4FBA69"/>
</linearGradient>
<linearGradient id="paint9_linear_1887_13601" x1="71.6893" y1="9.12866" x2="72.975" y2="31.3632" gradientUnits="userSpaceOnUse">
<stop stop-color="#97C93D"/>
<stop offset="1" stop-color="#4FBA69"/>
</linearGradient>
</defs>
</svg>
